<svg data-v-6805eed4="" version="1.0" xmlns="http://www.w3.org/2000/svg" xmlns:xlink="http://www.w3.org/1999/xlink" width="100%" height="100%" viewBox="0 0 340.000000 250.000000" preserveAspectRatio="xMidYMid meet" color-interpolation-filters="sRGB" style="margin: auto;"> <rect data-v-6805eed4="" x="0" y="0" width="100%" height="100%" fill="#ffffff" fill-opacity="0" class="background"></rect> <rect data-v-6805eed4="" x="0" y="0" width="100%" height="100%" fill="url(#watermark)" fill-opacity="1" class="watermarklayer"></rect> <g data-v-6805eed4="" class="iconmbgsvg" transform="translate(77.60249328613281,76.25)"><g fill="#333333" hollow-target="text"><g mask="url(#93992b86-9a54-4cb5-8676-1f6ed14b0d16)" opacity="1" transform="matrix(1,0,0,1,0,0)"><g><rect fill="#333333" fill-opacity="0" stroke-width="2" x="0" y="0" width="97.5" height="97.5" class="image-rect"></rect> <svg x="0" y="0" width="97.5" height="97.5" filtersec="colorsb9608538364" class="image-svg-svg primary" style="overflow: visible;"><svg fill="#000000" xmlns="http://www.w3.org/2000/svg" xmlns:xlink="http://www.w3.org/1999/xlink" viewBox="-2 -2 68 68" version="1.1" x="0px" y="0px"><title>30</title><desc>Created with Sketch.</desc><g stroke="none" stroke-width="1" fill="none" fill-rule="evenodd"><g fill="#000000"><path d="M64,32 L64,64 L32.0000097,64 C14.326888,64 0,49.673112 0,32 C0,14.326888 14.326888,0 32,0 C49.673112,0 64,14.326888 64,32 Z"></path></g></g></svg></svg> <!----></g><rect v-gra="id" width="109.5" height="109.5" transform="translate(-6, -6)" style="pointer-events:none;" fill="url(#Ha1XrSi2vdvNfhYzRuNmF)"></rect></g> <g transform="translate(48.704994201660156,26.670000076293945)"><g data-gra="path-name" fill-rule="" class="tp-name" opacity="1" transform="matrix(1,0,0,1,0,0)"><g transform="scale(1)"><g><path d="M7.14-11.19L7.14-55.39 14.27-55.39 14.27-11.19Q14.27-6.25 10.76-2.74L10.76-2.74Q7.25 0.77 1.54 0.77L1.54 0.77 1.54-6.36Q4.32-6.36 5.75-7.79L5.75-7.79Q7.14-9.22 7.14-11.19L7.14-11.19ZM46.21-6.36L46.21-6.36Q54.85-6.36 61.02-12.5L61.02-12.5Q67.16-18.67 67.16-27.31L67.16-27.31Q67.16-35.95 61.02-42.12L61.02-42.12Q54.85-48.26 46.21-48.26L46.21-48.26Q37.57-48.26 31.4-42.12L31.4-42.12Q25.27-35.95 25.27-27.31L25.27-27.31Q25.27-18.67 31.4-12.5L31.4-12.5Q37.57-6.36 46.21-6.36ZM46.21-55.39L46.21-55.39Q57.82-55.39 66.08-47.18L66.08-47.18Q74.29-38.92 74.29-27.31L74.29-27.31Q74.29-15.7 66.08-7.44L66.08-7.44Q57.82 0.77 46.21 0.77L46.21 0.77Q34.6 0.77 26.35-7.44L26.35-7.44Q18.13-15.7 18.13-27.31L18.13-27.31Q18.13-38.92 26.35-47.18L26.35-47.18Q34.6-55.39 46.21-55.39ZM93.97-48.26L93.97-48.26Q90.38-48.26 87.83-45.71L87.83-45.71Q85.29-43.16 85.29-39.58L85.29-39.58Q85.29-35.99 87.83-33.44L87.83-33.44Q90.38-30.9 93.97-30.9L93.97-30.9Q100.52-30.9 105.15-26.23L105.15-26.23Q109.82-21.6 109.82-15.04L109.82-15.04Q109.82-8.52 105.15-3.86L105.15-3.86Q100.52 0.77 93.97 0.77L93.97 0.77Q87.45 0.77 82.78-3.86L82.78-3.86Q78.15-8.52 78.15-15.82L78.15-15.82 85.29-15.82Q85.29-11.46 87.83-8.91L87.83-8.91Q90.38-6.36 93.97-6.36L93.97-6.36Q97.55-6.36 100.1-8.91L100.1-8.91Q102.65-11.46 102.65-15.04L102.65-15.04Q102.65-18.63 100.1-21.18L100.1-21.18Q97.55-23.72 93.97-23.72L93.97-23.72Q87.45-23.72 82.78-28.39L82.78-28.39Q78.15-33.02 78.15-39.58L78.15-39.58Q78.15-46.1 82.78-50.76L82.78-50.76Q87.45-55.39 93.97-55.39L93.97-55.39Q100.52-55.39 105.15-50.76L105.15-50.76Q109.82-46.1 109.82-38.81L109.82-38.81 102.65-38.81Q102.65-43.16 100.1-45.71L100.1-45.71Q97.55-48.26 93.97-48.26ZM130.5-55.39L137.63-55.39 137.63 0.77 130.5 0.77 130.5-13.23 120.81-13.23 120.81 0.77 113.68 0.77 113.68-55.39 120.81-55.39 120.81-20.37 130.5-20.37 130.5-55.39Z" transform="translate(-1.5399999618530273, 55.38999938964844)"></path></g> <!----> <!----> <!----> <!----> <!----> <!----> <!----></g></g> <!----></g></g></g><mask id="170be105-3967-426d-8bed-cd02ca62846c"><g fill="white"><g><rect fill-opacity="1" stroke-width="2" x="0" y="0" width="97.5" height="97.5" class="image-rect"></rect> <svg x="0" y="0" width="97.5" height="97.5" filtersec="colorsb9608538364" class="image-svg-svg primary" style="overflow: visible;"><svg xmlns="http://www.w3.org/2000/svg" xmlns:xlink="http://www.w3.org/1999/xlink" viewBox="-2 -2 68 68" version="1.1" x="0px" y="0px"><title>30</title><desc>Created with Sketch.</desc><g stroke="none" stroke-width="1" fill="none" fill-rule="evenodd"><g><path d="M64,32 L64,64 L32.0000097,64 C14.326888,64 0,49.673112 0,32 C0,14.326888 14.326888,0 32,0 C49.673112,0 64,14.326888 64,32 Z"></path></g></g></svg></svg> </g></g> <g transform="translate(48.704994201660156,26.670000076293945)" fill="black" stroke="black" stroke-width="6" stroke-linejoin="round"><g data-gra="path-name" fill-rule="" class="tp-name" opacity="1" transform="matrix(1,0,0,1,0,0)"><g transform="scale(1)"><g><path d="M7.14-11.19L7.14-55.39 14.27-55.39 14.27-11.19Q14.27-6.25 10.76-2.74L10.76-2.74Q7.25 0.77 1.54 0.77L1.54 0.77 1.54-6.36Q4.32-6.36 5.75-7.79L5.75-7.79Q7.14-9.22 7.14-11.19L7.14-11.19ZM46.21-6.36L46.21-6.36Q54.85-6.36 61.02-12.5L61.02-12.5Q67.16-18.67 67.16-27.31L67.16-27.31Q67.16-35.95 61.02-42.12L61.02-42.12Q54.85-48.26 46.21-48.26L46.21-48.26Q37.57-48.26 31.4-42.12L31.4-42.12Q25.27-35.95 25.27-27.31L25.27-27.31Q25.27-18.67 31.4-12.5L31.4-12.5Q37.57-6.36 46.21-6.36ZM46.21-55.39L46.21-55.39Q57.82-55.39 66.08-47.18L66.08-47.18Q74.29-38.92 74.29-27.31L74.29-27.31Q74.29-15.7 66.08-7.44L66.08-7.44Q57.82 0.77 46.21 0.77L46.21 0.77Q34.6 0.77 26.35-7.44L26.35-7.44Q18.13-15.7 18.13-27.31L18.13-27.31Q18.13-38.92 26.35-47.18L26.35-47.18Q34.6-55.39 46.21-55.39ZM93.97-48.26L93.97-48.26Q90.38-48.26 87.83-45.71L87.83-45.71Q85.29-43.16 85.29-39.58L85.29-39.58Q85.29-35.99 87.83-33.44L87.83-33.44Q90.38-30.9 93.97-30.9L93.97-30.9Q100.52-30.9 105.15-26.23L105.15-26.23Q109.82-21.6 109.82-15.04L109.82-15.04Q109.82-8.52 105.15-3.86L105.15-3.86Q100.52 0.77 93.97 0.77L93.97 0.77Q87.45 0.77 82.78-3.86L82.78-3.86Q78.15-8.52 78.15-15.82L78.15-15.82 85.29-15.82Q85.29-11.46 87.83-8.91L87.83-8.91Q90.38-6.36 93.97-6.36L93.97-6.36Q97.55-6.36 100.1-8.91L100.1-8.91Q102.65-11.46 102.65-15.04L102.65-15.04Q102.65-18.63 100.1-21.18L100.1-21.18Q97.55-23.72 93.97-23.72L93.97-23.72Q87.45-23.72 82.78-28.39L82.78-28.39Q78.15-33.02 78.15-39.58L78.15-39.58Q78.15-46.1 82.78-50.76L82.78-50.76Q87.45-55.39 93.97-55.39L93.97-55.39Q100.52-55.39 105.15-50.76L105.15-50.76Q109.82-46.1 109.82-38.81L109.82-38.81 102.65-38.81Q102.65-43.16 100.1-45.71L100.1-45.71Q97.55-48.26 93.97-48.26ZM130.5-55.39L137.63-55.39 137.63 0.77 130.5 0.77 130.5-13.23 120.81-13.23 120.81 0.77 113.68 0.77 113.68-55.39 120.81-55.39 120.81-20.37 130.5-20.37 130.5-55.39Z" transform="translate(-1.5399999618530273, 55.38999938964844)"></path></g>       </g></g> </g></mask><defs v-gra="od"></defs><defs v-gra="id"><filter id="2ec560c6-d2b0-466c-b8ce-12a63503e34d" filterUnits="userSpaceOnUse"><feColorMatrix type="matrix" values="0 0 0 0 0.99609375  0 0 0 0 0.99609375  0 0 0 0 0.99609375  0 0 0 1 0"></feColorMatrix></filter><linearGradient x1="0" y1="1" x2="0" y2="0" id="Ha1XrSi2vdvNfhYzRuNmF"><stop offset="0%" stop-color="#ff5857"></stop><stop offset="100%" stop-color="#f09819"></stop></linearGradient><filter id="42443b3f1de60f6b6fd3b6a9844b4764" filterUnits="objectBoundingBox"><feColorMatrix type="matrix" values="0 0 0 0 0.99609375  0 0 0 0 0.99609375  0 0 0 0 0.99609375  0 0 0 1 0"></feColorMatrix></filter></defs><mask v-gra="im" id="93992b86-9a54-4cb5-8676-1f6ed14b0d16"><g mask="url(#170be105-3967-426d-8bed-cd02ca62846c)" filter="url(#2ec560c6-d2b0-466c-b8ce-12a63503e34d)"><g><rect fill="#333333" fill-opacity="0" stroke-width="2" x="0" y="0" width="97.5" height="97.5" class="image-rect"></rect> <svg x="0" y="0" width="97.5" height="97.5" filtersec="colorsb9608538364" class="image-svg-svg primary" style="overflow: visible;"><svg fill="#000000" xmlns="http://www.w3.org/2000/svg" xmlns:xlink="http://www.w3.org/1999/xlink" viewBox="-2 -2 68 68" version="1.1" x="0px" y="0px"><title>30</title><desc>Created with Sketch.</desc><g stroke="none" stroke-width="1" fill="none" fill-rule="evenodd"><g fill="#000000"><path d="M64,32 L64,64 L32.0000097,64 C14.326888,64 0,49.673112 0,32 C0,14.326888 14.326888,0 32,0 C49.673112,0 64,14.326888 64,32 Z"></path></g></g></svg></svg> <!----></g></g></mask></svg>