<svg version="1.0" xmlns="http://www.w3.org/2000/svg" viewBox="0 0 340 250" color-interpolation-filters="sRGB" style="margin:auto">
    <rect width="100%" height="100%" fill="none" class="background"/>
    <rect width="100%" height="100%" fill="url(#watermark)" class="watermarklayer"/>
    <g fill="#fff" class="iconmbgsvg">
        <g mask="url(#a)" transform="translate(77.602 76.25)">
            <path class="image-rect" fill="none" d="M0 0h97.5v97.5H0z"/>
            <svg width="97.5" height="97.5" class="image-svg-svg primary" style="overflow:visible">
                <svg fill="#fff" xmlns="http://www.w3.org/2000/svg" xmlns:xlink="http://www.w3.org/1999/xlink" viewBox="-2 -2 68 68">
                    <path d="M64 32v32H32C14.327 64 0 49.673 0 32 0 14.327 14.327 0 32 0c17.673 0 32 14.327 32 32Z" fill="#fff" fill-rule="evenodd"/>
                </svg>
            </svg>
            <path transform="translate(-6 -6)" style="pointer-events:none" fill="url(#b)" d="M0 0h109.5v109.5H0z"/>
        </g>
        <path d="M131.907 147.12v-44.2h7.13v44.2q0 4.94-3.51 8.45-3.51 3.51-9.22 3.51v-7.13q2.78 0 4.21-1.43 1.39-1.43 1.39-3.4Zm39.07 4.83q8.64 0 14.81-6.14 6.14-6.17 6.14-14.81t-6.14-14.81q-6.17-6.14-14.81-6.14t-14.81 6.14q-6.13 6.17-6.13 14.81t6.13 14.81q6.17 6.14 14.81 6.14Zm0-49.03q11.61 0 19.87 8.21 8.21 8.26 8.21 19.87 0 11.61-8.21 19.87-8.26 8.21-19.87 8.21-11.61 0-19.86-8.21-8.22-8.26-8.22-19.87 0-11.61 8.22-19.87 8.25-8.21 19.86-8.21Zm47.76 7.13q-3.59 0-6.14 2.55-2.54 2.55-2.54 6.13 0 3.59 2.54 6.14 2.55 2.54 6.14 2.54 6.55 0 11.18 4.67 4.67 4.63 4.67 11.19 0 6.52-4.67 11.18-4.63 4.63-11.18 4.63-6.52 0-11.19-4.63-4.63-4.66-4.63-11.96h7.14q0 4.36 2.54 6.91 2.55 2.55 6.14 2.55 3.58 0 6.13-2.55t2.55-6.13q0-3.59-2.55-6.14-2.55-2.54-6.13-2.54-6.52 0-11.19-4.67-4.63-4.63-4.63-11.19 0-6.52 4.63-11.18 4.67-4.63 11.19-4.63 6.55 0 11.18 4.63 4.67 4.66 4.67 11.95h-7.17q0-4.35-2.55-6.9-2.55-2.55-6.13-2.55Zm36.53-7.13h7.13v56.16h-7.13v-14h-9.69v14h-7.13v-56.16h7.13v35.02h9.69v-35.02Z" data-gra="path-name" class="tp-name"/>
    </g>
    <mask id="c">
        <g fill="#fff">
            <path stroke-width="2" class="image-rect" d="M0 0h97.5v97.5H0z"/>
            <svg width="97.5" height="97.5" class="image-svg-svg primary" style="overflow:visible">
                <svg xmlns="http://www.w3.org/2000/svg" xmlns:xlink="http://www.w3.org/1999/xlink" viewBox="-2 -2 68 68">
                    <path d="M64 32v32H32C14.327 64 0 49.673 0 32 0 14.327 14.327 0 32 0c17.673 0 32 14.327 32 32Z" fill="none" fill-rule="evenodd"/>
                </svg>
            </svg>
        </g>
        <path d="M54.305 70.87v-44.2h7.13v44.2q0 4.94-3.51 8.45-3.51 3.51-9.22 3.51V75.7q2.78 0 4.21-1.43 1.39-1.43 1.39-3.4Zm39.07 4.83q8.64 0 14.81-6.14 6.14-6.17 6.14-14.81t-6.14-14.81q-6.17-6.14-14.81-6.14t-14.81 6.14q-6.13 6.17-6.13 14.81t6.13 14.81q6.17 6.14 14.81 6.14Zm0-49.03q11.61 0 19.87 8.21 8.21 8.26 8.21 19.87 0 11.61-8.21 19.87-8.26 8.21-19.87 8.21-11.61 0-19.86-8.21-8.22-8.26-8.22-19.87 0-11.61 8.22-19.87 8.25-8.21 19.86-8.21Zm47.76 7.13q-3.59 0-6.14 2.55-2.54 2.55-2.54 6.13 0 3.59 2.54 6.14 2.55 2.54 6.14 2.54 6.55 0 11.18 4.67 4.67 4.63 4.67 11.19 0 6.52-4.67 11.18-4.63 4.63-11.18 4.63-6.52 0-11.19-4.63-4.63-4.66-4.63-11.96h7.14q0 4.36 2.54 6.91 2.55 2.55 6.14 2.55 3.58 0 6.13-2.55t2.55-6.13q0-3.59-2.55-6.14-2.55-2.54-6.13-2.54-6.52 0-11.19-4.67-4.63-4.63-4.63-11.19 0-6.52 4.63-11.18 4.67-4.63 11.19-4.63 6.55 0 11.18 4.63 4.67 4.66 4.67 11.95h-7.17q0-4.35-2.55-6.9-2.55-2.55-6.13-2.55Zm36.53-7.13h7.13v56.16h-7.13v-14h-9.69v14h-7.13V26.67h7.13v35.02h9.69V26.67Z" data-gra="path-name" class="tp-name" stroke="#000" stroke-width="6" stroke-linejoin="round"/>
    </mask>
    <defs>
        <linearGradient x1="0" y1="1" x2="0" y2="0" id="b">
            <stop offset="0%" stop-color="#ff5857"/>
            <stop offset="100%" stop-color="#f09819"/>
        </linearGradient>
        <filter id="d" filterUnits="userSpaceOnUse">
            <feColorMatrix values="0 0 0 0 0.99609375 0 0 0 0 0.99609375 0 0 0 0 0.99609375 0 0 0 1 0"/>
        </filter>
    </defs>
    <mask id="a">
        <g mask="url(#c)" filter="url(#d)">
            <path fill="#333" fill-opacity="0" stroke-width="2" class="image-rect" d="M0 0h97.5v97.5H0z"/>
            <svg width="97.5" height="97.5" class="image-svg-svg primary" style="overflow:visible">
                <svg xmlns="http://www.w3.org/2000/svg" xmlns:xlink="http://www.w3.org/1999/xlink" viewBox="-2 -2 68 68">
                    <path d="M64 32v32H32C14.327 64 0 49.673 0 32 0 14.327 14.327 0 32 0c17.673 0 32 14.327 32 32Z" fill="#000" fill-rule="evenodd"/>
                </svg>
            </svg>
        </g>
    </mask>
</svg>
