<svg version="1.0" xmlns="http://www.w3.org/2000/svg" viewBox="0 0 340 250" color-interpolation-filters="sRGB" style="margin:auto">
    <rect width="100%" height="100%" fill="none" class="background"/>
    <rect width="100%" height="100%" fill="url(#watermark)" class="watermarklayer"/>
    <g fill="#f77062" class="icon-text-wrapper icon-svg-group iconsvg">
        <g class="iconsvg-imagesvg" transform="translate(69.355 94.981)" mask="url(#a)">
            <path class="image-rect" fill="none" d="M0 0h60v60.037H0z"/>
            <svg filter="url(#b)" width="60" height="60.037" class="image-svg-svg primary" style="overflow:visible">
                <svg xmlns="http://www.w3.org/2000/svg" viewBox="0.002 -0.003 103.915 103.979">
                    <path d="M46.8 74.06c-3.88 8.54-6 16.86-8.45 25-1.13 3.7-2.94 5-6.68 4.9-9.12-.18-18.26 0-27.38-.06-4.59 0-4.95-.46-3.6-4.62q7.44-22.9 15-45.77c1.43-4.35 1.09-4.92-3.59-5h-7c-2.24 0-2.88-1-2.23-3.12Q9.56 24.19 16.18 3c.76-2.48 2.38-3 4.65-3 6 .07 12 .11 18 0 3.3-.07 4.19 1 2.76 4.09q-6 13.15-11.88 26.42c-1.88 4.27-1.59 4.58 3 4.66 9.34.16 9.35.17 5.93 8.67Q32.47 59.19 26.27 74.5a11.44 11.44 0 0 0-1.05 4.81c5.67-7.56 11.37-15.12 17-22.7q9.88-13.24 19.7-26.54c.61-.83 1.87-1.59 1.29-2.77s-1.95-.74-3-.72c-2.31.06-4.61.34-6.92.39-2 .05-2.94-.79-1.62-2.73Q58.82 13.77 66 3.34c1.19-1.72 3-1.66 4.79-1.57 12.56.62 25 10.65 29.18 23.46s.33 25.3-10.45 33.87c-2.14 1.7-4.2 3.51-6.75 4.56-3 1.22-3 2.82-1.29 5.31 6.94 9.91 13.76 19.91 20.62 29.88.83 1.21 2.33 2.39 1.64 3.93s-2.62 1.12-4.06 1.12c-9.4 0-18.8 0-28.2.06a6.94 6.94 0 0 1-6.44-3.4c-5.85-8.67-11.85-17.24-18.24-26.5z" fill="#242a9b"/>
                </svg>
            </svg>
            <defs>
                <filter id="b">
                    <feColorMatrix values="0 0 0 0 0.96484375 0 0 0 0 0.4375 0 0 0 0 0.3828125 0 0 0 1 0" class="icon-fecolormatrix"/>
                </filter>
            </defs>
            <path transform="translate(-6 -6)" style="pointer-events:none" fill="url(#c)" d="M0 0h72v72.037H0z"/>
        </g>
        <path d="M34.97 0q-1.56 0-5.75-5.66-4.19-5.65-10.17-15.73l5.2-1.62q5.46 8.45 9.13 13.2 3.67 4.74 6.53 6.88 2.86 2.15 5.53 2.15.13 0 .13.39t-.13.39H34.97ZM19.18-40.82q5.78 0 8.9 2.14 3.12 2.15 3.12 6.05 0 3.18-1.98 6.01-1.99 2.83-5.2 4.52-3.22 1.69-6.73 1.69-2.34 0-3.32-.07v15.21q0 2.02.33 2.93.33.91 1.33 1.24 1.01.32 3.28.32.14 0 .14.39t-.14.39q-2.14 0-3.37-.07l-4.75-.06-4.68.06Q4.88 0 2.73 0q-.19 0-.19-.39t.19-.39q2.21 0 3.22-.32 1.01-.33 1.4-1.27.39-.94.39-2.9v-30.09q0-1.95-.36-2.86-.36-.91-1.4-1.27-1.04-.35-3.19-.35-.12 0-.12-.39 0-.4.12-.4l3.38.07q2.87.13 4.62.13 1.95 0 4.09-.2.79-.06 1.89-.13 1.11-.06 2.41-.06Zm5.59 10.59q0-5.2-1.76-7.28t-4.94-2.08q-2.34 0-3.22.91-.88.91-.88 3.45v12.93q1.57.26 3.78.26 3.83 0 5.42-1.78 1.6-1.79 1.6-6.41ZM69.03.33q-.26.13-.52.13-1.56 0-2.92-1.82-1.37-1.83-1.37-5.6v-14.95q0-3.96-.91-5.78-.91-1.82-2.92-1.82-2.41 0-3.64 1.88-1.24 1.89-1.95 4.81-.72 3.25-3.38 3.25-1.43 0-2.28-.78-.84-.78-.78-2.08 0-1.82 2.41-3.83 2.4-2.02 5.81-3.38 3.42-1.37 6.28-1.37 3.18 0 5.1 1.79 1.92 1.79 1.92 5.36v14.69q0 3.64.97 4.81.98 1.17 2.73 1.17.85 0 2.21-.52l.13-.06q.26 0 .36.32.1.33-.16.39L69.03.33ZM53.95.46q-2.47 0-4.06-1.37-1.59-1.36-1.59-3.38 0-2.21 1.43-3.74 1.43-1.52 4.48-2.57l11.77-4.22.19 1.11-8.06 3.05q-1.88.71-2.7 1.79-.81 1.07-.81 2.56 0 1.76.91 2.8.91 1.04 2.34 1.04 1.3 0 3.06-.98l5.72-2.86.06 1.11-6.17 3.51Q58.5-.52 56.97-.03q-1.52.49-3.02.49Zm55.58-30.88q.13 0 .13.39t-.13.39q-3.84 0-5.92 5.46L94.25-.07q-.06.27-.71.27-.65 0-.72-.27L80.86-25.03q-1.3-2.73-2.27-3.67-.98-.94-2.67-.94-.19 0-.19-.39t.19-.39l2.73.06q2.21.13 4.1.13 1.69 0 4.16-.13l2.79-.06q.13 0 .13.39t-.13.39q-3.38 0-3.38 2.01 0 .72.52 1.95L96.01-6.5 93.08-.84l8.91-23.73q.52-1.37.52-2.28 0-2.79-4.16-2.79-.2 0-.2-.39t.2-.39l2.27.06q2.08.13 3.9.13 1.04 0 2.6-.13l2.41-.06ZM126.56.78q-4.88 0-8.36-2.18-3.47-2.18-5.23-5.68-1.75-3.52-1.75-7.61 0-4.49 2.17-8.22 2.18-3.74 5.89-5.95 3.7-2.21 8.06-2.21 4.68 0 7.08 2.5 2.41 2.5 2.41 6.6 0 .72-.17 1.04-.16.32-.61.32h-5.4q.07-.52.07-1.49 0-3.64-1.4-5.56-1.4-1.91-4.13-1.91-3.64 0-5.82 3.34-2.17 3.35-2.17 8.94 0 7.08 3.25 11.41 3.25 4.32 9.03 4.32 1.69 0 3.48-.49t3.22-1.46h.06q.2 0 .36.23.16.22.03.42Q132.02.78 126.56.78ZM114.6-20.54l-.07-1.1 18.59-.33v1.36l-18.52.07Z" transform="translate(133.815 145.02)" data-gra="path-name" class="tp-name iconsvg-namesvg" fill="url(#d)"/>
    </g>
    <defs>
        <linearGradient x1="0" y1="1" x2="0" y2="0" id="d">
            <stop offset="0%" stop-color="#f77062"/>
            <stop offset="100%" stop-color="#fe5196"/>
        </linearGradient>
    </defs>
    <defs>
        <linearGradient x1="0" y1="1" x2="0" y2="0" id="c">
            <stop offset="0%" stop-color="#f77062"/>
            <stop offset="100%" stop-color="#fe5196"/>
        </linearGradient>
        <filter id="e" filterUnits="userSpaceOnUse">
            <feColorMatrix values="0 0 0 0 0.99609375 0 0 0 0 0.99609375 0 0 0 0 0.99609375 0 0 0 1 0"/>
        </filter>
    </defs>
    <mask id="a">
        <g class="iconsvg-imagesvg" filter="url(#e)">
            <path fill="#f77062" fill-opacity="0" stroke-width="2" class="image-rect" d="M0 0h60v60.037H0z"/>
            <svg width="60" height="60.037" class="image-svg-svg primary" style="overflow:visible">
                <svg xmlns="http://www.w3.org/2000/svg" viewBox="0.002 -0.003 103.915 103.979">
                    <path d="M46.8 74.06c-3.88 8.54-6 16.86-8.45 25-1.13 3.7-2.94 5-6.68 4.9-9.12-.18-18.26 0-27.38-.06-4.59 0-4.95-.46-3.6-4.62q7.44-22.9 15-45.77c1.43-4.35 1.09-4.92-3.59-5h-7c-2.24 0-2.88-1-2.23-3.12Q9.56 24.19 16.18 3c.76-2.48 2.38-3 4.65-3 6 .07 12 .11 18 0 3.3-.07 4.19 1 2.76 4.09q-6 13.15-11.88 26.42c-1.88 4.27-1.59 4.58 3 4.66 9.34.16 9.35.17 5.93 8.67Q32.47 59.19 26.27 74.5a11.44 11.44 0 0 0-1.05 4.81c5.67-7.56 11.37-15.12 17-22.7q9.88-13.24 19.7-26.54c.61-.83 1.87-1.59 1.29-2.77s-1.95-.74-3-.72c-2.31.06-4.61.34-6.92.39-2 .05-2.94-.79-1.62-2.73Q58.82 13.77 66 3.34c1.19-1.72 3-1.66 4.79-1.57 12.56.62 25 10.65 29.18 23.46s.33 25.3-10.45 33.87c-2.14 1.7-4.2 3.51-6.75 4.56-3 1.22-3 2.82-1.29 5.31 6.94 9.91 13.76 19.91 20.62 29.88.83 1.21 2.33 2.39 1.64 3.93s-2.62 1.12-4.06 1.12c-9.4 0-18.8 0-28.2.06a6.94 6.94 0 0 1-6.44-3.4c-5.85-8.67-11.85-17.24-18.24-26.5z" fill="#242a9b"/>
                </svg>
            </svg>
        </g>
    </mask>
</svg>
