<svg xmlns="http://www.w3.org/2000/svg" xmlns:xlink="http://www.w3.org/1999/xlink" aria-hidden="true" role="img" class="iconify iconify--logos" width="360" height="360" preserveAspectRatio="xMidYMid meet" viewBox="0 0 256 228"><path fill="#f77062" d="M46.8 74.06c-3.88 8.54-6 16.86-8.45 25-1.13 3.7-2.94 5-6.68 4.9-9.12-.18-18.26 0-27.38-.06-4.59 0-4.95-.46-3.6-4.62q7.44-22.9 15-45.77c1.43-4.35 1.09-4.92-3.59-5h-7c-2.24 0-2.88-1-2.23-3.12Q9.56 24.19 16.18 3c.76-2.48 2.38-3 4.65-3 6 .07 12 .11 18 0 3.3-.07 4.19 1 2.76 4.09q-6 13.15-11.88 26.42c-1.88 4.27-1.59 4.58 3 4.66 9.34.16 9.35.17 5.93 8.67Q32.47 59.19 26.27 74.5a11.44 11.44 0 0 0-1.05 4.81c5.67-7.56 11.37-15.12 17-22.7q9.88-13.24 19.7-26.54c.61-.83 1.87-1.59 1.29-2.77s-1.95-.74-3-.72c-2.31.06-4.61.34-6.92.39-2 .05-2.94-.79-1.62-2.73Q58.82 13.77 66 3.34c1.19-1.72 3-1.66 4.79-1.57 12.56.62 25 10.65 29.18 23.46s.33 25.3-10.45 33.87c-2.14 1.7-4.2 3.51-6.75 4.56-3 1.22-3 2.82-1.29 5.31 6.94 9.91 13.76 19.91 20.62 29.88.83 1.21 2.33 2.39 1.64 3.93s-2.62 1.12-4.06 1.12c-9.4 0-18.8 0-28.2.06a6.94 6.94 0 0 1-6.44-3.4c-5.85-8.67-11.85-17.24-18.24-26.5z"></path></svg>